<svg width="29" height="29" viewBox="0 0 29 29" fill="none" xmlns="http://www.w3.org/2000/svg">
<path d="M22.9583 25.375H6.04167C4.70698 25.375 3.625 24.2931 3.625 22.9583V6.04167C3.625 4.70698 4.70698 3.625 6.04167 3.625H22.9583C24.2931 3.625 25.375 4.70698 25.375 6.04167V22.9583C25.375 24.2931 24.2931 25.375 22.9583 25.375Z" stroke="#05070A" stroke-width="1.8125"/>
<path d="M3.625 18.125H11.3583C11.7587 18.125 12.0897 18.4613 12.2651 18.8212C12.514 19.3322 13.1034 19.9375 14.5 19.9375C15.8966 19.9375 16.486 19.3322 16.7349 18.8212C16.9103 18.4613 17.2412 18.125 17.6417 18.125H25.375" stroke="#5CE289" stroke-width="1.8125"/>
<path d="M3.625 8.45825H25.375" stroke="#05070A" stroke-width="1.8125"/>
<path d="M3.625 13.2917H25.375" stroke="#05070A" stroke-width="1.8125"/>
</svg>
