<svg width="30" height="30" viewBox="0 0 30 30" fill="none" xmlns="http://www.w3.org/2000/svg">
<circle opacity="0.8" cx="15" cy="15" r="14.5" transform="matrix(-1 0 0 1 30 0)" fill="#D9D9D9" stroke="white"/>
<path d="M12.8689 22.1842L19.5202 15.5527C19.5991 15.4737 19.6552 15.3882 19.6883 15.2961C19.7215 15.204 19.7378 15.1053 19.7373 15C19.7373 14.8948 19.721 14.7961 19.6883 14.704C19.6557 14.6119 19.5997 14.5264 19.5202 14.4474L12.8689 7.79609C12.6847 7.61188 12.4544 7.51978 12.1781 7.51978C11.9018 7.51978 11.6649 7.61846 11.4676 7.81583C11.2702 8.0132 11.1715 8.24346 11.1715 8.50662C11.1715 8.76978 11.2702 9.00004 11.4676 9.19741L17.2702 15L11.4676 20.8027C11.2833 20.9869 11.1912 21.214 11.1912 21.484C11.1912 21.754 11.2899 21.9874 11.4873 22.1842C11.6847 22.3816 11.9149 22.4803 12.1781 22.4803C12.4412 22.4803 12.6715 22.3816 12.8689 22.1842Z" fill="#4D4D4D"/>
</svg>
