<svg width="30" height="30" viewBox="0 0 30 30" fill="none" xmlns="http://www.w3.org/2000/svg">
<circle opacity="0.8" cx="15" cy="15" r="14.5" fill="#D9D9D9" stroke="white"/>
<path d="M17.1311 22.1842L10.4798 15.5527C10.4009 15.4737 10.3448 15.3882 10.3117 15.2961C10.2785 15.204 10.2622 15.1053 10.2627 15C10.2627 14.8948 10.279 14.7961 10.3117 14.704C10.3443 14.6119 10.4003 14.5264 10.4798 14.4474L17.1311 7.79609C17.3153 7.61188 17.5456 7.51978 17.8219 7.51978C18.0982 7.51978 18.3351 7.61846 18.5324 7.81583C18.7298 8.0132 18.8285 8.24346 18.8285 8.50662C18.8285 8.76978 18.7298 9.00004 18.5324 9.19741L12.7298 15L18.5324 20.8027C18.7167 20.9869 18.8088 21.214 18.8088 21.484C18.8088 21.754 18.7101 21.9874 18.5127 22.1842C18.3153 22.3816 18.0851 22.4803 17.8219 22.4803C17.5588 22.4803 17.3285 22.3816 17.1311 22.1842Z" fill="#4D4D4D"/>
</svg>
