<svg width="31" height="31" viewBox="0 0 31 31" fill="none" xmlns="http://www.w3.org/2000/svg">
<g clip-path="url(#clip0_824_4795)">
<path d="M2.58301 10.9793H17.4372" stroke="#909AAD" stroke-width="1.5" stroke-miterlimit="10" stroke-linecap="round" stroke-linejoin="round"/>
<path d="M7.75 21.3128H10.3333" stroke="#909AAD" stroke-width="1.5" stroke-miterlimit="10" stroke-linecap="round" stroke-linejoin="round"/>
<path d="M13.5625 21.3128H18.7292" stroke="#909AAD" stroke-width="1.5" stroke-miterlimit="10" stroke-linecap="round" stroke-linejoin="round"/>
<path d="M28.4163 14.2472V20.8089C28.4163 25.3427 27.2668 26.4793 22.6813 26.4793H8.31801C3.73259 26.4793 2.58301 25.3427 2.58301 20.8089V10.1914C2.58301 5.65766 3.73259 4.521 8.31801 4.521H17.4372" stroke="#909AAD" stroke-width="2" stroke-linecap="round" stroke-linejoin="round"/>
<path fill-rule="evenodd" clip-rule="evenodd" d="M19.8047 8.28688C19.8047 8.13588 19.856 8.03471 20.0108 7.78329C20.269 7.33029 20.3204 7.07888 20.3204 6.5247C20.3204 5.97128 20.269 5.71987 20.0108 5.26687C19.9595 5.16645 19.8047 4.91428 19.8047 4.76328C19.8047 4.46128 20.0621 4.15927 20.3717 4.15927C20.6299 4.15927 20.836 4.26045 21.0429 4.66286C21.4038 5.21628 21.6099 5.87087 21.6099 6.57529C21.6099 7.27971 21.4038 7.98488 21.0429 8.5383C20.836 8.8403 20.6299 8.9913 20.3717 8.9913C20.0621 8.89089 19.8047 8.58888 19.8047 8.28688ZM21.9715 9.39372C21.9715 9.24272 22.0229 9.1423 22.229 8.78971C22.642 8.03471 22.7968 7.27971 22.7968 6.47487C22.7968 5.71987 22.642 4.96486 22.229 4.20986C22.0229 3.85727 21.9715 3.70627 21.9715 3.55527C21.9715 3.40427 22.1777 3.05244 22.5386 3.05244C22.9002 3.05244 23.055 3.20344 23.3645 3.80744C23.8289 4.66286 24.035 5.46845 24.035 6.47487C24.035 7.53188 23.8802 8.28688 23.3132 9.34389C23.1584 9.69572 22.9515 9.99772 22.5907 9.99772C22.229 9.94713 21.9715 9.69572 21.9715 9.39372ZM24.2932 10.5511C24.2932 10.2997 24.448 10.0981 24.6027 9.79613C25.1184 8.73913 25.3766 7.63229 25.3766 6.5247C25.3766 5.36728 25.1184 4.25969 24.5514 3.15285C24.3445 2.75044 24.2932 2.54885 24.2932 2.39785C24.2932 2.19702 24.5514 1.89502 24.9123 1.89502C25.3253 1.89502 25.428 2.19702 25.6862 2.59944C26.2018 3.60586 26.6669 4.96486 26.6669 6.52546C26.6669 7.68288 26.4087 8.89089 25.7896 10.2491C25.5314 10.8531 25.2732 11.1551 24.9636 11.1551C24.5514 11.1551 24.2932 10.8531 24.2932 10.5511ZM26.5635 11.7093C26.5635 11.5077 26.6669 11.3061 26.8217 11.0547C27.5956 9.64513 27.9565 8.2363 27.9565 6.47487C27.9565 4.81386 27.6469 3.50544 26.873 1.94485C26.7696 1.69343 26.6148 1.44202 26.6148 1.24043C26.6148 0.938428 26.873 0.687012 27.1826 0.687012C27.5435 0.687012 27.6983 0.887843 27.9565 1.44202C28.8338 3.10302 29.1947 4.71345 29.1947 6.47487C29.1947 8.28688 28.7303 9.94789 27.9051 11.5583C27.7503 11.9101 27.5956 12.3133 27.1312 12.3133C26.873 12.3133 26.5635 12.0611 26.5635 11.7093Z" fill="#5CE289"/>
</g>
<defs>
<clipPath id="clip0_824_4795">
<rect width="31" height="31" fill="white"/>
</clipPath>
</defs>
</svg>
