<svg width="20" height="20" viewBox="0 0 20 20" fill="none" xmlns="http://www.w3.org/2000/svg">
<path fill-rule="evenodd" clip-rule="evenodd" d="M3 4.5C2.17157 4.5 1.5 5.17157 1.5 6V14C1.5 14.8284 2.17157 15.5 3 15.5H17C17.8284 15.5 18.5 14.8284 18.5 14V6C18.5 5.17157 17.8284 4.5 17 4.5H3ZM0 6C0 4.34315 1.34315 3 3 3H17C18.6569 3 20 4.34315 20 6V14C20 15.6569 18.6569 17 17 17H3C1.34315 17 0 15.6569 0 14V6Z" fill="black"/>
<path d="M8.25 6H3.75C3.33579 6 3 6.33579 3 6.75C3 7.16421 3.33579 7.5 3.75 7.5H8.25C8.66421 7.5 9 7.16421 9 6.75C9 6.33579 8.66421 6 8.25 6Z" fill="white"/>
<path d="M8.25 6.5H3.75C3.61193 6.5 3.5 6.61193 3.5 6.75C3.5 6.88807 3.61193 7 3.75 7H8.25C8.38807 7 8.5 6.88807 8.5 6.75C8.5 6.61193 8.38807 6.5 8.25 6.5Z" stroke="black"/>
<path d="M6.25 9H3.75C3.33579 9 3 9.33579 3 9.75C3 10.1642 3.33579 10.5 3.75 10.5H6.25C6.66421 10.5 7 10.1642 7 9.75C7 9.33579 6.66421 9 6.25 9Z" fill="white"/>
<path d="M6.25 9.5H3.75C3.61193 9.5 3.5 9.61193 3.5 9.75C3.5 9.88807 3.61193 10 3.75 10H6.25C6.38807 10 6.5 9.88807 6.5 9.75C6.5 9.61193 6.38807 9.5 6.25 9.5Z" stroke="black"/>
<path fill-rule="evenodd" clip-rule="evenodd" d="M15.2494 10.145C15.2494 9.29282 14.9385 8.46991 14.375 7.83063C14.1924 7.62348 14.2123 7.30752 14.4194 7.12492C14.6266 6.94232 14.9425 6.96223 15.1251 7.16938C15.8496 7.99131 16.2494 9.04934 16.2494 10.145C16.2494 11.2407 15.8496 12.2987 15.1251 13.1206C14.9425 13.3278 14.6266 13.3477 14.4194 13.1651C14.2123 12.9825 14.1924 12.6665 14.375 12.4594C14.9385 11.8201 15.2494 10.9972 15.2494 10.145ZM13.5 10.155C13.5 9.62886 13.3156 9.11933 12.9788 8.71503C12.8021 8.50285 12.8309 8.18758 13.043 8.01084C13.2552 7.83411 13.5705 7.86285 13.7472 8.07503C14.2336 8.65902 14.5 9.39501 14.5 10.155C14.5 10.9151 14.2336 11.651 13.7472 12.235C13.5705 12.4472 13.2552 12.476 13.043 12.2992C12.8309 12.1225 12.8021 11.8072 12.9788 11.595C13.3156 11.1907 13.5 10.6812 13.5 10.155ZM11.5648 9.56721C11.6851 9.73641 11.7496 9.93882 11.7496 10.1464C11.7496 10.3539 11.6851 10.5563 11.5648 10.7255C11.4049 10.9507 11.4578 11.2628 11.6829 11.4227C11.908 11.5827 12.2201 11.5298 12.3801 11.3047C12.6205 10.9663 12.7496 10.5615 12.7496 10.1464C12.7496 9.73127 12.6205 9.32645 12.3801 8.98804C12.2201 8.76293 11.908 8.71009 11.6829 8.87002C11.4578 9.02996 11.4049 9.3421 11.5648 9.56721Z" fill="black"/>
</svg>
