<svg width="26" height="34" viewBox="0 0 26 34" fill="none" xmlns="http://www.w3.org/2000/svg">
<path d="M21.2398 29.0018H4.24757C2.491 29.0018 1.06152 27.5723 1.06152 25.8158V15.1956C1.06152 13.439 2.491 12.0096 4.24757 12.0096H21.2398C22.9964 12.0096 24.4259 13.439 24.4259 15.1956V25.8158C24.4259 27.5723 22.9964 29.0018 21.2398 29.0018ZM4.24757 14.1336C3.6624 14.1336 3.18556 14.6104 3.18556 15.1956V25.8158C3.18556 26.4009 3.6624 26.8778 4.24757 26.8778H21.2398C21.825 26.8778 22.3019 26.4009 22.3019 25.8158V15.1956C22.3019 14.6104 21.825 14.1336 21.2398 14.1336H4.24757Z" fill="#909AAD"/>
<path d="M10.6197 23.6917H6.37159C5.78429 23.6917 5.30957 23.2159 5.30957 22.6297C5.30957 22.0434 5.78429 21.5677 6.37159 21.5677H10.6197C11.2069 21.5677 11.6817 22.0434 11.6817 22.6297C11.6817 23.2159 11.2069 23.6917 10.6197 23.6917Z" fill="#5CE289"/>
<path d="M10.6197 19.4436H6.37159C5.78429 19.4436 5.30957 18.9679 5.30957 18.3816C5.30957 17.7954 5.78429 17.3196 6.37159 17.3196H10.6197C11.2069 17.3196 11.6817 17.7954 11.6817 18.3816C11.6817 18.9679 11.2069 19.4436 10.6197 19.4436Z" fill="#5CE289"/>
<path d="M16.9912 21.0368C18.1643 21.0368 19.1153 20.0858 19.1153 18.9127C19.1153 17.7397 18.1643 16.7887 16.9912 16.7887C15.8181 16.7887 14.8672 17.7397 14.8672 18.9127C14.8672 20.0858 15.8181 21.0368 16.9912 21.0368Z" fill="#909AAD"/>
<path d="M16.992 21.9456C15.3331 21.9456 14.3369 22.7049 14.3369 23.4632C14.3369 23.8423 15.3331 24.2226 16.992 24.2226C18.5489 24.2226 19.647 23.8434 19.647 23.4632C19.647 22.7049 18.6062 21.9456 16.992 21.9456Z" fill="#909AAD"/>
<path d="M2 1L9.23736 11.3391C10.8228 13.604 14.1772 13.604 15.7626 11.3391L23 1" stroke="#909AAD" stroke-width="1.59303" stroke-linecap="round"/>
</svg>
