<svg width="80" height="80" viewBox="0 0 80 80" fill="none" xmlns="http://www.w3.org/2000/svg">
<g clip-path="url(#clip0_1284_2747)">
<path d="M75.71 13.59C74.7724 12.4648 73.5985 11.5598 72.2718 10.9394C70.9451 10.3189 69.498 9.99821 68.0333 10H14.14L14 8.83C13.7135 6.39806 12.5446 4.15577 10.715 2.52826C8.88532 0.900744 6.52209 0.00113931 4.07333 0L3.33333 0C2.44928 0 1.60143 0.35119 0.976311 0.976311C0.35119 1.60143 0 2.44928 0 3.33333C0 4.21739 0.35119 5.06524 0.976311 5.69036C1.60143 6.31548 2.44928 6.66667 3.33333 6.66667H4.07333C4.88978 6.66677 5.67779 6.96652 6.28791 7.50905C6.89802 8.05158 7.28781 8.79916 7.38333 9.61L11.97 48.61C12.4462 52.666 14.3949 56.4059 17.4464 59.12C20.4978 61.8341 24.4395 63.3334 28.5233 63.3333H63.3333C64.2174 63.3333 65.0652 62.9822 65.6904 62.357C66.3155 61.7319 66.6667 60.8841 66.6667 60C66.6667 59.1159 66.3155 58.2681 65.6904 57.643C65.0652 57.0179 64.2174 56.6667 63.3333 56.6667H28.5233C26.4602 56.6609 24.4493 56.0171 22.7664 54.8235C21.0836 53.63 19.811 51.9452 19.1233 50H58.8567C62.7643 50.0002 66.5478 48.6274 69.5461 46.1215C72.5444 43.6155 74.5668 40.1357 75.26 36.29L77.8767 21.7767C78.1379 20.3367 78.0792 18.8569 77.7047 17.4421C77.3303 16.0274 76.6493 14.7123 75.71 13.59ZM71.3333 20.5933L68.7133 35.1067C68.2971 37.4167 67.0816 39.5066 65.2795 41.0107C63.4775 42.5147 61.2039 43.3369 58.8567 43.3333H18.0633L14.9267 16.6667H68.0333C68.523 16.6637 69.0073 16.7687 69.4518 16.9742C69.8963 17.1796 70.29 17.4805 70.6051 17.8554C70.9201 18.2302 71.1487 18.6699 71.2746 19.1431C71.4004 19.6163 71.4205 20.1115 71.3333 20.5933Z" fill="#5CE289"/>
<path d="M23.3327 80C27.0146 80 29.9993 77.0152 29.9993 73.3333C29.9993 69.6514 27.0146 66.6666 23.3327 66.6666C19.6508 66.6666 16.666 69.6514 16.666 73.3333C16.666 77.0152 19.6508 80 23.3327 80Z" fill="#5CE289"/>
<path d="M56.6667 80C60.3486 80 63.3333 77.0152 63.3333 73.3333C63.3333 69.6514 60.3486 66.6666 56.6667 66.6666C52.9848 66.6666 50 69.6514 50 73.3333C50 77.0152 52.9848 80 56.6667 80Z" fill="#5CE289"/>
</g>
<defs>
<clipPath id="clip0_1284_2747">
<rect width="80" height="80" fill="white"/>
</clipPath>
</defs>
</svg>
