<svg width="20" height="20" viewBox="0 0 20 20" fill="none" xmlns="http://www.w3.org/2000/svg">
<path fill-rule="evenodd" clip-rule="evenodd" d="M6 3C6 2.44772 6.44772 2 7 2H10C10.5523 2 11 2.44772 11 3V6C11 6.55228 10.5523 7 10 7H7C6.44772 7 6 6.55228 6 6V3ZM7 3H10V6H7V3Z" fill="#5CE289"/>
<path fill-rule="evenodd" clip-rule="evenodd" d="M4 2C4 0.895431 4.89543 0 6 0H14C15.1046 0 16 0.895431 16 2V18C16 19.1046 15.1046 20 14 20H6C4.89543 20 4 19.1046 4 18V2ZM6 1.5H14C14.2761 1.5 14.5 1.72386 14.5 2V18C14.5 18.2761 14.2761 18.5 14 18.5H6C5.72386 18.5 5.5 18.2761 5.5 18V2C5.5 1.72386 5.72386 1.5 6 1.5Z" fill="#5CE289"/>
</svg>
