<svg width="34" height="34" viewBox="0 0 34 34" fill="none" xmlns="http://www.w3.org/2000/svg">
<g clip-path="url(#clip0_516_33073)">
<path d="M30.2774 23.2833C30.2774 21.7863 29.6827 20.3506 28.6242 19.2921C27.5657 18.2336 26.13 17.6389 24.633 17.6389H23.9274V16.9333C23.9274 16.5591 23.7788 16.2002 23.5141 15.9355C23.2495 15.6709 22.8906 15.5222 22.5163 15.5222H5.58299C5.20874 15.5222 4.84981 15.6709 4.58518 15.9355C4.32055 16.2002 4.17188 16.5591 4.17188 16.9333V30.3389C4.17188 30.8022 4.26312 31.2609 4.44041 31.6889C4.6177 32.1169 4.87755 32.5058 5.20514 32.8334C5.53272 33.161 5.92162 33.4208 6.34963 33.5981C6.77764 33.7754 7.23638 33.8667 7.69965 33.8667H20.3997C20.8629 33.8667 21.3217 33.7754 21.7497 33.5981C22.1777 33.4208 22.5666 33.161 22.8942 32.8334C23.2218 32.5058 23.4816 32.1169 23.6589 31.6889C23.8362 31.2609 23.9274 30.8022 23.9274 30.3389V28.9278H24.633C26.13 28.9278 27.5657 28.3331 28.6242 27.2746C29.6827 26.216 30.2774 24.7803 30.2774 23.2833ZM24.633 26.1055H24.2802C24.2338 26.1057 24.1879 26.0967 24.145 26.0791C24.1021 26.0614 24.0631 26.0354 24.0303 26.0026C23.9975 25.9698 23.9716 25.9309 23.9539 25.888C23.9362 25.8451 23.9272 25.7992 23.9274 25.7528V20.8139C23.9274 20.7203 23.9646 20.6306 24.0308 20.5644C24.0969 20.4983 24.1866 20.4611 24.2802 20.4611H24.633C25.3815 20.4611 26.0993 20.7584 26.6286 21.2877C27.1579 21.817 27.4552 22.5348 27.4552 23.2833C27.4552 24.0318 27.1579 24.7497 26.6286 25.2789C26.0993 25.8082 25.3815 26.1055 24.633 26.1055Z" fill="black"/>
<path d="M7.97242 4.04292C8.02628 4.01369 8.0716 3.97094 8.10392 3.91886C8.13623 3.86679 8.15442 3.8072 8.1567 3.74597C8.15898 3.68473 8.14527 3.62395 8.11691 3.56962C8.08856 3.51529 8.04654 3.46929 7.995 3.43614L4.65772 1.27714C4.54218 1.20799 4.40926 1.17335 4.27466 1.17731C4.14006 1.18127 4.00941 1.22366 3.89813 1.29948C3.78685 1.3753 3.69959 1.48138 3.64665 1.60519C3.59371 1.72901 3.57731 1.86538 3.59939 1.99822L4.19488 5.56833C4.20404 5.6239 4.22637 5.67646 4.26 5.72163C4.29363 5.7668 4.33759 5.80327 4.3882 5.82797C4.43827 5.85338 4.49362 5.86663 4.54977 5.86663C4.60592 5.86663 4.66128 5.85338 4.71134 5.82797L7.97242 4.04292Z" fill="black"/>
<path d="M5.1426 7.18814C5.06197 7.23286 5.00205 7.30738 4.97568 7.39573C4.9493 7.48409 4.95857 7.57926 5.00149 7.66086L8.13416 13.7286C8.19365 13.8435 8.28355 13.9397 8.39404 14.0069C8.50454 14.0741 8.63137 14.1096 8.76069 14.1096H12.994C13.1167 14.1099 13.2374 14.0781 13.3441 14.0174C13.4508 13.9567 13.5398 13.8693 13.6023 13.7637C13.6649 13.6581 13.6988 13.538 13.7008 13.4153C13.7027 13.2926 13.6727 13.1715 13.6135 13.064L9.34348 5.3029C9.29874 5.22077 9.22321 5.15977 9.13351 5.13331C9.04381 5.10685 8.94727 5.11709 8.86511 5.16178L5.1426 7.18814Z" fill="black"/>
<path d="M19.1045 10.2912H19.0961C18.7808 10.1583 18.48 9.99326 18.1986 9.7987C18.158 9.77105 18.1121 9.75211 18.0637 9.7431C18.0154 9.73408 17.9658 9.73518 17.9179 9.74631C17.87 9.75745 17.825 9.77839 17.7856 9.80781C17.7463 9.83723 17.7134 9.87448 17.6892 9.91723L15.9366 13.0626C15.8769 13.17 15.8462 13.2911 15.8477 13.414C15.8492 13.5369 15.8827 13.6573 15.945 13.7632C16.0073 13.8691 16.0962 13.9569 16.2029 14.018C16.3096 14.079 16.4303 14.1111 16.5532 14.1111H19.1384C19.2817 14.1112 19.4217 14.0676 19.5397 13.9862C19.6577 13.9048 19.7481 13.7893 19.7988 13.6553L20.7442 11.1378C20.7632 11.0882 20.7707 11.0348 20.7662 10.9818C20.7617 10.9289 20.7452 10.8776 20.7181 10.8318C20.6909 10.7861 20.6538 10.7471 20.6095 10.7177C20.5651 10.6884 20.5147 10.6694 20.462 10.6623C20.1357 10.6208 19.8143 10.5471 19.5025 10.4422C19.3712 10.3984 19.2386 10.3476 19.1045 10.2912Z" fill="black"/>
<path d="M24.012 3.97255C23.7974 3.00382 23.3097 2.11686 22.6067 1.41664C21.9038 0.716419 21.0149 0.232249 20.0453 0.0214352C19.9077 -0.0118102 19.7633 -0.00287997 19.6308 0.0470648C19.4983 0.0970096 19.3839 0.185658 19.3025 0.301485C19.221 0.417312 19.1763 0.554958 19.1742 0.696527C19.172 0.838097 19.2125 0.97704 19.2904 1.09529C20.0369 2.23265 19.5867 2.90434 18.7923 3.90905C18.4863 4.25799 18.2291 4.64676 18.0274 5.06475C17.8571 5.42678 17.7643 5.82038 17.7547 6.22036C17.7452 6.62034 17.8192 7.01791 17.9721 7.38765C18.1249 7.75739 18.3533 8.09117 18.6425 8.36764C18.9317 8.64411 19.2754 8.8572 19.6516 8.99328C20.1571 9.25043 20.7271 9.35303 21.2904 9.28828C21.8538 9.22354 22.3857 8.99431 22.8196 8.62921C23.4149 8.02949 23.8394 7.28167 24.049 6.46302C24.2586 5.64437 24.2458 4.7846 24.012 3.97255Z" fill="black"/>
</g>
<defs>
<clipPath id="clip0_516_33073">
<rect width="33.8667" height="33.8667" fill="white"/>
</clipPath>
</defs>
</svg>
