<svg width="19" height="16" viewBox="0 0 19 16" fill="none" xmlns="http://www.w3.org/2000/svg">
<g clip-path="url(#clip0_1507_797)">
<path d="M17.8123 4.57153H1.18774C0.872729 4.57153 0.570624 4.4511 0.34788 4.23673C0.125137 4.02237 9.46844e-07 3.73163 9.46844e-07 3.42847V1.14306C9.46844e-07 0.992954 0.0307226 0.844314 0.0904118 0.705632C0.150101 0.566949 0.237589 0.440939 0.34788 0.334796C0.458172 0.228653 0.589106 0.144455 0.733209 0.0870106C0.877312 0.0295663 1.03176 0 1.18774 0H17.8123C17.9682 0 18.1227 0.0295663 18.2668 0.0870106C18.4109 0.144455 18.5418 0.228653 18.6521 0.334796C18.7624 0.440939 18.8499 0.566949 18.9096 0.705632C18.9693 0.844314 19 0.992954 19 1.14306V3.42847C19 3.73163 18.8749 4.02237 18.6521 4.23673C18.4294 4.4511 18.1273 4.57153 17.8123 4.57153ZM16.0314 1.42883C15.8552 1.42883 15.683 1.47911 15.5365 1.57331C15.39 1.66751 15.2758 1.8014 15.2084 1.95805C15.141 2.1147 15.1234 2.28708 15.1577 2.45338C15.1921 2.61968 15.2769 2.77243 15.4015 2.89233C15.5261 3.01222 15.6848 3.09387 15.8576 3.12695C16.0304 3.16003 16.2095 3.14305 16.3723 3.07817C16.5351 3.01328 16.6742 2.9034 16.7721 2.76242C16.87 2.62143 16.9222 2.45568 16.9222 2.28613C16.9222 2.05876 16.8284 1.8407 16.6613 1.67993C16.4942 1.51915 16.2677 1.42883 16.0314 1.42883ZM13.6567 1.42883C13.4804 1.42869 13.3081 1.47886 13.1615 1.57301C13.0149 1.66716 12.9006 1.80104 12.8331 1.95772C12.7656 2.1144 12.7479 2.28683 12.7822 2.4532C12.8166 2.61957 12.9014 2.77239 13.0261 2.89233C13.1507 3.01226 13.3095 3.09393 13.4823 3.12699C13.6552 3.16004 13.8344 3.143 13.9972 3.07803C14.16 3.01305 14.2991 2.90306 14.3969 2.76196C14.4948 2.62087 14.5469 2.45502 14.5467 2.2854C14.5465 2.05816 14.4526 1.84029 14.2856 1.67967C14.1185 1.51905 13.8928 1.42883 13.6567 1.42883ZM17.813 10.2861H1.18774C1.0317 10.2861 0.877187 10.2565 0.733036 10.199C0.588884 10.1416 0.457916 10.0573 0.347615 9.95107C0.237314 9.84486 0.149842 9.71876 0.0901965 9.57999C0.0305514 9.44123 -9.75624e-05 9.29251 9.46844e-07 9.14234V6.85549C9.46844e-07 6.55233 0.125137 6.26159 0.34788 6.04723C0.570624 5.83286 0.872729 5.71243 1.18774 5.71243H17.8123C18.1273 5.71243 18.4294 5.83286 18.6521 6.04723C18.8749 6.26159 19 6.55233 19 6.85549V9.1409C19.0002 9.29113 18.9696 9.43992 18.91 9.57877C18.8504 9.71762 18.763 9.8438 18.6527 9.9501C18.5423 10.0564 18.4113 10.1407 18.2671 10.1983C18.1229 10.2558 17.9684 10.2854 17.8123 10.2854L17.813 10.2861ZM16.0314 7.14415C15.8552 7.14415 15.683 7.19443 15.5365 7.28863C15.39 7.38283 15.2758 7.51672 15.2084 7.67337C15.141 7.83002 15.1234 8.00239 15.1577 8.16869C15.1921 8.33499 15.2769 8.48775 15.4015 8.60764C15.5261 8.72754 15.6848 8.80919 15.8576 8.84227C16.0304 8.87535 16.2095 8.85837 16.3723 8.79348C16.5351 8.7286 16.6742 8.61871 16.7721 8.47773C16.87 8.33675 16.9222 8.171 16.9222 8.00144C16.9222 7.77407 16.8284 7.55601 16.6613 7.39524C16.4942 7.23447 16.2677 7.14415 16.0314 7.14415ZM13.6567 7.14415C13.4804 7.144 13.3081 7.1942 13.1614 7.28838C13.0148 7.38255 12.9005 7.51648 12.833 7.6732C12.7655 7.82992 12.7479 8.00239 12.7823 8.16878C12.8167 8.33517 12.9016 8.48799 13.0263 8.6079C13.151 8.72781 13.3099 8.80941 13.4828 8.84239C13.6557 8.87536 13.8349 8.85822 13.9977 8.79314C14.1605 8.72805 14.2996 8.61794 14.3973 8.47676C14.495 8.33557 14.547 8.16965 14.5467 8C14.5463 7.77288 14.4523 7.55519 14.2853 7.39473C14.1183 7.23427 13.8927 7.14415 13.6567 7.14415ZM17.813 16.0014H1.18774C1.03163 16.0014 0.877063 15.9718 0.732862 15.9143C0.588662 15.8568 0.457661 15.7724 0.34735 15.6661C0.237039 15.5598 0.149582 15.4337 0.089981 15.2948C0.0303801 15.156 -0.000196151 15.0072 9.46844e-07 14.8569V12.5708C9.46844e-07 12.2676 0.125137 11.9769 0.34788 11.7625C0.570624 11.5482 0.872729 11.4277 1.18774 11.4277H17.8123C18.1273 11.4277 18.4294 11.5482 18.6521 11.7625C18.8749 11.9769 19 12.2676 19 12.5708V14.8562C19.0001 15.0064 18.9695 15.1551 18.9098 15.2939C18.8502 15.4326 18.7627 15.5587 18.6524 15.6649C18.5421 15.7712 18.4111 15.8554 18.267 15.9129C18.1228 15.9704 17.9683 16 17.8123 16L17.813 16.0014ZM16.0314 12.8566C15.8551 12.8564 15.6827 12.9067 15.536 13.0009C15.3893 13.0952 15.2751 13.2292 15.2076 13.386C15.1402 13.5428 15.1226 13.7153 15.1571 13.8817C15.1916 14.0482 15.2767 14.201 15.4016 14.3208C15.5264 14.4407 15.6854 14.5222 15.8584 14.555C16.0315 14.5878 16.2107 14.5705 16.3735 14.5051C16.5362 14.4398 16.6752 14.3295 16.7727 14.1881C16.8703 14.0468 16.9221 13.8807 16.9215 13.711C16.9207 13.4842 16.8266 13.267 16.6598 13.1069C16.493 12.9468 16.267 12.8568 16.0314 12.8566ZM13.6567 12.8566C13.4804 12.8564 13.3079 12.9067 13.1613 13.0009C13.0146 13.0952 12.9003 13.2292 12.8329 13.386C12.7654 13.5428 12.7479 13.7153 12.7824 13.8817C12.8169 14.0482 12.902 14.201 13.0269 14.3208C13.1517 14.4407 13.3107 14.5222 13.4837 14.555C13.6567 14.5878 13.836 14.5705 13.9988 14.5051C14.1615 14.4398 14.3005 14.3295 14.398 14.1881C14.4956 14.0468 14.5473 13.8807 14.5467 13.711C14.546 13.4841 14.4518 13.2668 14.2848 13.1066C14.1178 12.9465 13.8924 12.8566 13.6567 12.8566Z" fill="#269777"/>
</g>
<defs>
<clipPath id="clip0_1507_797">
<rect width="19" height="16" fill="white"/>
</clipPath>
</defs>
</svg>
