<svg width="20" height="20" viewBox="0 0 20 20" fill="none" xmlns="http://www.w3.org/2000/svg">
<g clip-path="url(#clip0_826_6258)">
<path d="M10 0C8.02219 0 6.08879 0.58649 4.4443 1.6853C2.79981 2.78412 1.51809 4.3459 0.761209 6.17317C0.00433286 8.00043 -0.193701 10.0111 0.192152 11.9509C0.578004 13.8907 1.53041 15.6725 2.92894 17.0711C4.32746 18.4696 6.10929 19.422 8.0491 19.8079C9.98891 20.1937 11.9996 19.9957 13.8268 19.2388C15.6541 18.4819 17.2159 17.2002 18.3147 15.5557C19.4135 13.9112 20 11.9778 20 10C19.9971 7.34872 18.9426 4.80684 17.0679 2.9321C15.1932 1.05736 12.6513 0.00286757 10 0V0ZM10 18.3333C8.35183 18.3333 6.74066 17.8446 5.37025 16.9289C3.99984 16.0132 2.93174 14.7117 2.30101 13.189C1.67028 11.6663 1.50525 9.99076 1.82679 8.37425C2.14834 6.75774 2.94201 5.27288 4.10745 4.10744C5.27289 2.94201 6.75774 2.14833 8.37425 1.82679C9.99076 1.50525 11.6663 1.67027 13.189 2.301C14.7118 2.93173 16.0132 3.99984 16.9289 5.37025C17.8446 6.74066 18.3333 8.35182 18.3333 10C18.3309 12.2094 17.4522 14.3276 15.8899 15.8899C14.3276 17.4522 12.2094 18.3309 10 18.3333Z" fill="#5CE289"/>
<path d="M10.5976 4.21927C10.117 4.13171 9.62309 4.15084 9.15074 4.27531C8.67839 4.39977 8.23917 4.62652 7.86416 4.93952C7.48915 5.25253 7.18751 5.64412 6.98059 6.0866C6.77367 6.52908 6.66653 7.01163 6.66675 7.5001C6.66675 7.72112 6.75455 7.93308 6.91083 8.08936C7.06711 8.24564 7.27907 8.33344 7.50008 8.33344C7.7211 8.33344 7.93306 8.24564 8.08934 8.08936C8.24562 7.93308 8.33342 7.72112 8.33342 7.5001C8.33321 7.25492 8.3871 7.0127 8.49124 6.79074C8.59539 6.56877 8.74723 6.37251 8.93593 6.21596C9.12463 6.05941 9.34555 5.94643 9.58294 5.88506C9.82032 5.82369 10.0683 5.81546 10.3092 5.86094C10.6384 5.92484 10.9411 6.08543 11.1786 6.32218C11.4161 6.55893 11.5776 6.86111 11.6426 7.1901C11.7082 7.53544 11.6629 7.89267 11.5132 8.21072C11.3635 8.52877 11.1171 8.79136 10.8092 8.96094C10.2994 9.25633 9.87807 9.68303 9.58919 10.1966C9.3003 10.7102 9.15442 11.2918 9.16675 11.8809V12.5001C9.16675 12.7211 9.25455 12.9331 9.41083 13.0894C9.56711 13.2456 9.77907 13.3334 10.0001 13.3334C10.2211 13.3334 10.4331 13.2456 10.5893 13.0894C10.7456 12.9331 10.8334 12.7211 10.8334 12.5001V11.8809C10.823 11.5909 10.8891 11.3033 11.0251 11.047C11.1612 10.7907 11.3624 10.5748 11.6084 10.4209C12.2122 10.0893 12.6984 9.57882 13.0002 8.95961C13.3019 8.3404 13.4045 7.6429 13.2936 6.96304C13.1828 6.28318 12.8641 5.65435 12.3813 5.16302C11.8985 4.67169 11.2754 4.34199 10.5976 4.21927Z" fill="#5CE289"/>
<path d="M10.8334 15.0001C10.8334 14.5398 10.4603 14.1667 10.0001 14.1667C9.53984 14.1667 9.16675 14.5398 9.16675 15.0001C9.16675 15.4603 9.53984 15.8334 10.0001 15.8334C10.4603 15.8334 10.8334 15.4603 10.8334 15.0001Z" fill="#5CE289"/>
</g>
<defs>
<clipPath id="clip0_826_6258">
<rect width="20" height="20" fill="white"/>
</clipPath>
</defs>
</svg>
