<svg width="20" height="20" viewBox="0 0 20 20" fill="none" xmlns="http://www.w3.org/2000/svg">
<g clip-path="url(#clip0_887_6435)">
<path d="M10 0C8.02219 0 6.08879 0.58649 4.4443 1.6853C2.79981 2.78412 1.51809 4.3459 0.761209 6.17317C0.00433286 8.00043 -0.193701 10.0111 0.192152 11.9509C0.578004 13.8907 1.53041 15.6725 2.92894 17.0711C4.32746 18.4696 6.10929 19.422 8.0491 19.8079C9.98891 20.1937 11.9996 19.9957 13.8268 19.2388C15.6541 18.4819 17.2159 17.2002 18.3147 15.5557C19.4135 13.9112 20 11.9778 20 10C19.9971 7.34872 18.9426 4.80684 17.0679 2.9321C15.1932 1.05736 12.6513 0.00286757 10 0V0ZM10 18.3333C8.35183 18.3333 6.74066 17.8446 5.37025 16.9289C3.99984 16.0132 2.93174 14.7117 2.30101 13.189C1.67028 11.6663 1.50525 9.99076 1.82679 8.37425C2.14834 6.75774 2.94201 5.27288 4.10745 4.10744C5.27289 2.94201 6.75774 2.14833 8.37425 1.82679C9.99076 1.50525 11.6663 1.67027 13.189 2.301C14.7118 2.93173 16.0132 3.99984 16.9289 5.37025C17.8446 6.74066 18.3333 8.35182 18.3333 10C18.3309 12.2094 17.4522 14.3276 15.8899 15.8899C14.3276 17.4522 12.2094 18.3309 10 18.3333Z" fill="#909AAD"/>
<path d="M10.5975 4.21903C10.1169 4.13147 9.62297 4.1506 9.15062 4.27506C8.67827 4.39952 8.23905 4.62628 7.86404 4.93928C7.48902 5.25228 7.18739 5.64388 6.98047 6.08636C6.77355 6.52884 6.66641 7.01139 6.66663 7.49986C6.66663 7.72087 6.75442 7.93284 6.9107 8.08912C7.06698 8.2454 7.27895 8.33319 7.49996 8.33319C7.72097 8.33319 7.93293 8.2454 8.08922 8.08912C8.2455 7.93284 8.33329 7.72087 8.33329 7.49986C8.33308 7.25467 8.38697 7.01246 8.49112 6.79049C8.59527 6.56852 8.7471 6.37227 8.93581 6.21572C9.12451 6.05917 9.34543 5.94618 9.58281 5.88482C9.8202 5.82345 10.0682 5.81521 10.3091 5.86069C10.6383 5.9246 10.941 6.08518 11.1785 6.32193C11.416 6.55869 11.5775 6.86086 11.6425 7.18986C11.708 7.5352 11.6628 7.89242 11.5131 8.21048C11.3634 8.52853 11.117 8.79111 10.8091 8.96069C10.2993 9.25608 9.87795 9.68279 9.58906 10.1964C9.30018 10.7099 9.1543 11.2916 9.16663 11.8807V12.4999C9.16663 12.7209 9.25442 12.9328 9.4107 13.0891C9.56698 13.2454 9.77895 13.3332 9.99996 13.3332C10.221 13.3332 10.4329 13.2454 10.5892 13.0891C10.7455 12.9328 10.8333 12.7209 10.8333 12.4999V11.8807C10.8228 11.5907 10.889 11.3031 11.025 11.0468C11.1611 10.7905 11.3622 10.5745 11.6083 10.4207C12.2121 10.0891 12.6983 9.57857 13 8.95936C13.3018 8.34015 13.4043 7.64266 13.2935 6.9628C13.1827 6.28294 12.864 5.6541 12.3812 5.16277C11.8984 4.67144 11.2753 4.34175 10.5975 4.21903Z" fill="#909AAD"/>
<path d="M10.8333 15.0003C10.8333 14.5401 10.4602 14.167 9.99996 14.167C9.53972 14.167 9.16663 14.5401 9.16663 15.0003C9.16663 15.4606 9.53972 15.8337 9.99996 15.8337C10.4602 15.8337 10.8333 15.4606 10.8333 15.0003Z" fill="#909AAD"/>
</g>
<defs>
<clipPath id="clip0_887_6435">
<rect width="20" height="20" fill="white"/>
</clipPath>
</defs>
</svg>
